<svg version="1.2" xmlns="http://www.w3.org/2000/svg" viewBox="0 0 300 150" width="300" height="150"><style>.s0{fill:#ffffff;stroke:#78d8c2;stroke-width:0}.s1{fill:#31a8f7;stroke:#6ac6aa;stroke-width:0}.s2{fill:#6c3bf4;stroke:#6ac6aa;stroke-width:0}.s3{fill:#000000;stroke:#6ac6aa;stroke-width:0}</style><path class="s0" d="m0 0h300v150h-300z" /><path fill="#000000" aria-label="man"  d="m204.77 55.66q3.49 0 5.27 1.83q1.81 1.82 1.81 5.85v13.66h-5.63v-12.24q0-2.24-0.75-3.39q-0.75-1.14-2.33-1.14q-2.23 0-3.16 1.63q-0.94 1.61-0.94 4.63v10.51h-5.6v-12.24q0-1.5-0.33-2.51q-0.33-1.01-1.01-1.51q-0.68-0.51-1.75-0.51q-1.56 0-2.46 0.8q-0.88 0.79-1.27 2.35q-0.37 1.53-0.37 3.76v9.86h-5.6v-20.95h4.28l0.75 2.68h0.32q0.62-1.09 1.56-1.76q0.95-0.68 2.09-0.99q1.14-0.32 2.32-0.32q2.26 0 3.82 0.75q1.58 0.75 2.42 2.32h0.5q0.92-1.61 2.59-2.34q1.69-0.73 3.47-0.73zm21.24-0.04q4.13 0 6.34 1.84q2.2 1.83 2.2 5.58v13.96h-3.91l-1.09-2.85h-0.14q-0.88 1.13-1.8 1.84q-0.92 0.71-2.12 1.05q-1.19 0.33-2.9 0.33q-1.82 0-3.27-0.71q-1.43-0.71-2.26-2.17q-0.82-1.48-0.82-3.75q0-3.33 2.29-4.91q2.3-1.59 6.89-1.76l3.57-0.11v-0.92q0-1.65-0.85-2.42q-0.84-0.77-2.35-0.77q-1.49 0-2.92 0.44q-1.44 0.43-2.87 1.08l-1.85-3.86q1.63-0.88 3.65-1.38q2.04-0.51 4.21-0.51zm2.98 13.4v-1.73l-2.17 0.08q-2.72 0.07-3.79 0.99q-1.04 0.92-1.04 2.42q0 1.31 0.75 1.87q0.75 0.55 1.96 0.55q1.81 0 3.04-1.09q1.25-1.09 1.25-3.09zm23-13.36q3.28 0 5.29 1.83q2 1.82 2 5.85v13.66h-5.6v-12.24q0-2.24-0.81-3.39q-0.79-1.14-2.5-1.14q-2.57 0-3.51 1.78q-0.94 1.78-0.94 5.13v9.86h-5.6v-20.95h4.28l0.75 2.68h0.32q0.66-1.09 1.63-1.76q0.99-0.68 2.19-0.99q1.21-0.32 2.5-0.32z" /><path fill="#5c59e0" aria-label="pod"  d="m118.47 55.66q3.47 0 5.6 2.75q2.15 2.76 2.15 8.08q0 3.56-1.01 5.99q-1.01 2.42-2.79 3.66q-1.78 1.23-4.1 1.23q-1.49 0-2.55-0.37q-1.07-0.39-1.82-0.99q-0.75-0.62-1.31-1.31h-0.29q0.15 0.74 0.22 1.53q0.07 0.79 0.07 1.54v8.45h-5.6v-30.17h4.56l0.79 2.72h0.25q0.56-0.85 1.35-1.56q0.78-0.71 1.89-1.12q1.12-0.43 2.59-0.43zm-1.8 4.57q-1.47 0-2.34 0.62q-0.86 0.62-1.26 1.85q-0.39 1.24-0.43 3.13v0.62q0 2.02 0.37 3.43q0.39 1.4 1.27 2.14q0.9 0.73 2.46 0.73q1.29 0 2.11-0.73q0.83-0.74 1.23-2.14q0.43-1.42 0.43-3.47q0-3.07-0.94-4.63q-0.94-1.55-2.9-1.55zm32.84 6.26q0 2.62-0.69 4.64q-0.68 2.03-2.01 3.43q-1.3 1.39-3.16 2.1q-1.83 0.71-4.15 0.71q-2.17 0-3.98-0.71q-1.8-0.71-3.15-2.1q-1.32-1.4-2.05-3.43q-0.72-2.02-0.72-4.64q0-3.49 1.21-5.9q1.22-2.42 3.46-3.68q2.24-1.25 5.34-1.25q2.89 0 5.11 1.25q2.24 1.26 3.51 3.68q1.28 2.41 1.28 5.9zm-14.2 0q0 2.06 0.44 3.46q0.45 1.41 1.38 2.12q0.94 0.71 2.45 0.71q1.48 0 2.4-0.71q0.94-0.71 1.36-2.12q0.44-1.4 0.44-3.46q0-2.08-0.44-3.45q-0.42-1.39-1.36-2.08q-0.93-0.69-2.44-0.69q-2.22 0-3.23 1.55q-1 1.56-1 4.67zm25.34 10.88q-3.44 0-5.61-2.73q-2.15-2.76-2.15-8.08q0-5.38 2.19-8.13q2.19-2.77 5.71-2.77q1.47 0 2.59 0.41q1.13 0.41 1.93 1.1q0.83 0.7 1.4 1.56h0.18q-0.11-0.6-0.27-1.76q-0.15-1.18-0.15-2.42v-6.71h5.62v29.16h-4.3l-1.08-2.72h-0.24q-0.53 0.86-1.34 1.58q-0.79 0.69-1.89 1.1q-1.1 0.41-2.59 0.41zm1.96-4.55q2.3 0 3.24-1.39q0.95-1.4 1.01-4.21v-0.62q0-3.05-0.92-4.67q-0.92-1.63-3.42-1.63q-1.85 0-2.9 1.63q-1.05 1.63-1.05 4.71q0 3.07 1.05 4.63q1.06 1.55 2.99 1.55z" /><path fill="#000000" aria-label="compose"  d="m140.13 100.24q-1.72 0-3.03-0.73q-1.31-0.72-2.04-2.2q-0.73-1.48-0.73-3.72q0-2.36 0.76-3.85q0.78-1.5 2.14-2.23q1.35-0.72 3.08-0.72q0.96 0 1.84 0.2q0.89 0.19 1.46 0.49l-0.58 1.64q-0.58-0.23-1.35-0.42q-0.75-0.19-1.41-0.19q-1.33 0-2.21 0.58q-0.87 0.58-1.31 1.7q-0.43 1.13-0.43 2.77q0 1.58 0.42 2.69q0.43 1.11 1.26 1.7q0.85 0.58 2.12 0.58q1.01 0 1.82-0.21q0.81-0.23 1.47-0.52v1.75q-0.64 0.33-1.43 0.51q-0.77 0.18-1.85 0.18zm17.25-6.75q0 1.6-0.4 2.85q-0.41 1.26-1.18 2.12q-0.76 0.87-1.85 1.33q-1.08 0.45-2.45 0.45q-1.28 0-2.34-0.45q-1.06-0.46-1.84-1.33q-0.76-0.86-1.19-2.12q-0.42-1.25-0.42-2.85q0-2.13 0.71-3.62q0.7-1.5 2.02-2.28q1.32-0.8 3.14-0.8q1.74 0 3.04 0.8q1.31 0.79 2.03 2.29q0.73 1.49 0.73 3.61zm-9.68 0q0 1.56 0.41 2.71q0.41 1.15 1.25 1.78q0.85 0.62 2.19 0.62q1.32 0 2.16-0.62q0.86-0.63 1.27-1.78q0.41-1.15 0.41-2.71q0-1.55-0.41-2.67q-0.41-1.14-1.25-1.76q-0.85-0.61-2.2-0.61q-1.98 0-2.91 1.34q-0.92 1.33-0.92 3.7zm26.82-6.7q2.1 0 3.17 1.13q1.06 1.11 1.06 3.58v8.5h-1.9v-8.4q0-1.58-0.67-2.36q-0.66-0.79-1.97-0.79q-1.85 0-2.68 1.09q-0.84 1.09-0.84 3.21v7.25h-1.91v-8.4q0-1.06-0.31-1.75q-0.29-0.7-0.88-1.05q-0.58-0.35-1.47-0.35q-1.27 0-2.03 0.53q-0.77 0.53-1.12 1.59q-0.33 1.04-0.33 2.57v6.86h-1.93v-12.97h1.56l0.29 1.83h0.1q0.38-0.67 0.96-1.13q0.58-0.46 1.3-0.7q0.72-0.24 1.53-0.24q1.46 0 2.43 0.56q0.99 0.54 1.43 1.67h0.1q0.63-1.13 1.72-1.67q1.09-0.56 2.39-0.56zm14.17 0q2.37 0 3.79 1.67q1.42 1.67 1.42 5.02q0 2.21-0.65 3.72q-0.65 1.5-1.84 2.27q-1.17 0.77-2.77 0.77q-1.01 0-1.78-0.28q-0.76-0.27-1.31-0.73q-0.54-0.46-0.9-1.01h-0.14q0.03 0.47 0.08 1.12q0.06 0.65 0.06 1.13v5.33h-1.94v-18.77h1.59l0.25 1.92h0.1q0.37-0.6 0.9-1.08q0.54-0.5 1.3-0.78q0.78-0.3 1.84-0.3zm-0.34 1.66q-1.32 0-2.14 0.52q-0.8 0.52-1.17 1.56q-0.37 1.03-0.39 2.59v0.38q0 1.65 0.35 2.78q0.36 1.14 1.17 1.73q0.82 0.59 2.2 0.59q1.19 0 1.97-0.65q0.79-0.65 1.18-1.81q0.39-1.17 0.39-2.68q0-2.3-0.88-3.65q-0.87-1.36-2.68-1.36zm19.86 5.04q0 1.6-0.4 2.85q-0.41 1.26-1.18 2.12q-0.76 0.87-1.85 1.33q-1.08 0.45-2.45 0.45q-1.28 0-2.34-0.45q-1.06-0.46-1.84-1.33q-0.76-0.86-1.19-2.12q-0.42-1.25-0.42-2.85q0-2.13 0.71-3.62q0.71-1.5 2.02-2.28q1.32-0.8 3.14-0.8q1.74 0 3.04 0.8q1.31 0.79 2.03 2.29q0.73 1.49 0.73 3.61zm-9.67 0q0 1.56 0.4 2.71q0.41 1.15 1.26 1.78q0.84 0.62 2.18 0.62q1.32 0 2.17-0.62q0.86-0.63 1.26-1.78q0.41-1.15 0.41-2.71q0-1.55-0.41-2.67q-0.4-1.14-1.25-1.76q-0.85-0.61-2.19-0.61q-1.99 0-2.92 1.34q-0.91 1.33-0.91 3.7zm21.23 2.96q0 1.24-0.62 2.09q-0.6 0.84-1.74 1.27q-1.12 0.43-2.69 0.43q-1.33 0-2.31-0.22q-0.97-0.21-1.7-0.6v-1.81q0.77 0.39 1.85 0.71q1.08 0.32 2.21 0.32q1.65 0 2.39-0.55q0.74-0.54 0.74-1.47q0-0.54-0.3-0.94q-0.29-0.41-0.99-0.79q-0.69-0.39-1.92-0.85q-1.22-0.48-2.11-0.94q-0.89-0.47-1.37-1.15q-0.48-0.67-0.48-1.75q0-1.64 1.3-2.52q1.31-0.89 3.43-0.89q1.15 0 2.15 0.24q1.01 0.22 1.88 0.61l-0.65 1.58q-0.79-0.34-1.68-0.58q-0.89-0.24-1.82-0.24q-1.34 0-2.06 0.45q-0.7 0.45-0.7 1.23q0 0.61 0.32 1q0.34 0.39 1.07 0.73q0.73 0.34 1.92 0.81q1.2 0.44 2.07 0.93q0.87 0.47 1.33 1.16q0.48 0.67 0.48 1.74zm7.99-9.66q1.63 0 2.79 0.74q1.16 0.73 1.77 2.06q0.62 1.31 0.62 3.07v1.22h-8.78q0.03 2.29 1.11 3.48q1.08 1.2 3.04 1.2q1.21 0 2.13-0.23q0.93-0.22 1.93-0.66v1.73q-0.96 0.43-1.91 0.64q-0.94 0.2-2.23 0.2q-1.84 0-3.2-0.76q-1.36-0.77-2.12-2.25q-0.75-1.48-0.75-3.62q0-2.1 0.68-3.62q0.7-1.54 1.95-2.37q1.27-0.83 2.97-0.83zm-0.02 1.61q-1.54 0-2.46 1.03q-0.92 1.03-1.09 2.88h6.73q-0.01-1.16-0.36-2.04q-0.34-0.89-1.03-1.37q-0.7-0.5-1.79-0.5z" /><path class="s1" d="m71 101.7l-26.7-15.9l8.1-37.7l26.7 15.8z" /><path class="s2" d="m69.3 97.3l-21.6-13.4l6.3-31.2l21.5 13.4z" /><path class="s1" d="m77.6 93.3l-23.6-14l7.2-33.3l23.5 14z" /><path class="s3" d="m76.1 89.4l-19-11.8l5.5-27.5l19 11.8z" /><path class="s1" d="m54.2 102.5l-16.2-9.6l4.9-22.9l16.2 9.6z" /><path class="s3" d="m53.2 99.8l-13.1-8.1l3.8-18.9l13 8.1z" /><path class="s1" d="m79.3 97.8l-15.3-9.1l4.7-21.7l15.3 9.1z" /><path class="s2" d="m78.4 95.3l-12.4-7.7l3.6-17.9l12.4 7.7z" /></svg>